<svg width="44" height="43" viewBox="0 0 44 43" fill="none" xmlns="http://www.w3.org/2000/svg">
<path d="M42.547 22.4977C42.3666 22.4987 42.1878 22.4657 42.0208 22.4005C41.8538 22.3354 41.7019 22.2394 41.5739 22.118L21.9879 3.39506L2.4019 22.118C2.1397 22.3325 1.80243 22.4446 1.45748 22.4319C1.11253 22.4191 0.785311 22.2825 0.541213 22.0494C0.297115 21.8162 0.154117 21.5036 0.140793 21.1741C0.127469 20.8446 0.244801 20.5224 0.469343 20.2719L21.0285 0.632443C21.2853 0.388585 21.6326 0.251709 21.9947 0.251709C22.3568 0.251709 22.7042 0.388585 22.961 0.632443L32.9689 10.2217L36.7752 13.8722V11.6142H38.2025V15.2503L43.5201 20.2719C43.7087 20.4557 43.8364 20.6885 43.8873 20.9413C43.9382 21.194 43.9099 21.4555 43.8061 21.693C43.7022 21.9305 43.5274 22.1335 43.3035 22.2766C43.0795 22.4197 42.8164 22.4966 42.547 22.4977Z" fill="#121212"/>
<path d="M21.9878 7.8205L5.54053 23.5844V39.5186C5.54053 40.2131 5.82933 40.8791 6.34341 41.3702C6.85749 41.8613 7.55473 42.1372 8.28174 42.1372H17.876V29.0442H26.0996V42.1372H35.6939C36.4209 42.1372 37.1181 41.8613 37.6322 41.3702C38.1463 40.8791 38.4351 40.2131 38.4351 39.5186V23.4928L21.9878 7.8205Z" fill="#121212"/>
</svg>
