<svg width="70" height="67" viewBox="0 0 70 67" fill="none" xmlns="http://www.w3.org/2000/svg">
<path d="M17.6053 27.3187C18.4634 29.7743 19.2967 32.2378 20.1049 34.7089C22.6503 36.2891 25.1767 37.897 27.6836 39.5324C29.0995 40.4639 30.5097 41.4097 31.896 42.4023C32.5857 42.8921 33.2616 43.3995 33.9228 43.924L34.3328 28.8022C32.7832 25.425 30.874 22.1995 28.7661 19.0897C26.5728 15.865 24.1853 12.7648 21.6156 9.80475L24.5994 24.9549C25.9936 32.0473 21.5391 27.4005 21.5391 27.4005L14.665 19.8096C15.2919 21.0073 15.7486 22.277 16.2305 23.5292L17.6053 27.3187" fill="#0A430D"/>
<path d="M10.4937 28.7389L18.7232 33.8439C18.1855 31.7163 17.6301 29.5928 17.0572 27.4736L15.9644 23.611C15.5716 22.3326 15.2062 21.0422 14.6684 19.8085L13.7891 23.202C13.3027 25.0705 12.3572 25.1403 12.009 25.0978L2.09399 23.1147C3.35806 24.2186 4.80825 25.1 6.21276 26.0315L10.4937 28.7389Z" fill="#0F3410"/>
<path d="M35.7167 28.8011L36.1289 43.9229C36.7897 43.3989 37.4648 42.8915 38.1535 42.4012C39.5431 41.4086 40.9522 40.4629 42.3682 39.5313C44.8741 37.8957 47.3998 36.2878 49.9445 34.7078C50.7544 32.237 51.5884 29.7735 52.4464 27.3176L53.8155 23.5271C54.2997 22.2748 54.7564 21.004 55.3833 19.8074L48.5092 27.3983C48.5092 27.3983 44.0536 32.0452 45.449 24.9528L48.4373 9.80258L48.4293 9.80585C45.8599 12.7648 43.4728 15.8639 41.28 19.0875C39.1789 22.1985 37.2674 25.424 35.7167 28.8011" fill="#0B320C"/>
<path d="M34.3944 26.59L35.0259 3.39519L35.6573 26.59C37.1943 23.8739 38.9425 21.2767 40.8141 18.7821C43.169 15.6513 45.7133 12.6545 48.4339 9.80694L42.9163 12.439C42.6023 12.5579 41.5129 12.7074 40.0707 10.0829L35.0259 0.898346L29.9833 10.0829C28.54 12.7074 27.4518 12.559 27.1355 12.439L21.6179 9.80366C24.3384 12.6523 26.883 15.6498 29.2388 18.781C31.1115 21.2767 32.8586 23.8739 34.3944 26.59" fill="#0C6D10"/>
<path d="M52.9945 27.4736C52.4211 29.5925 51.8665 31.716 51.3308 33.8439L59.5581 28.7389L63.8401 26.0315C65.2435 25.1 66.6948 24.2186 67.9589 23.1147L58.0428 25.0978C57.6991 25.1403 56.7467 25.0705 56.2626 23.202L55.3833 19.8085C54.8432 21.0422 54.4801 22.3326 54.0873 23.611L52.9945 27.4736" fill="#005C04"/>
<path d="M12.8128 37.8046C16.1403 37.9387 19.4746 38.0096 22.8043 38.0522C21.3615 37.0229 19.914 35.9997 18.4617 34.9827L10.1671 29.1872L6.04605 26.2541C4.69634 25.2483 3.29639 24.2873 2.09399 23.1158L5.03548 33.0825C5.15995 33.7981 5.10513 34.8594 3.87304 35.3754L0.769409 36.6821C2.72774 37.1675 4.75458 37.3017 6.76201 37.473C8.77629 37.6213 10.794 37.7239 12.8128 37.8046Z" fill="#2C562E"/>
<path d="M45.6442 50.3357C43.3399 48.3712 41.0904 46.3368 38.777 44.417C38.3488 44.7704 37.916 45.1206 37.5106 45.4827C37.0333 45.9136 36.5629 46.3543 36.2077 46.7863L36.4076 54.1263C37.1738 54.1339 37.8075 54.1481 38.061 54.1688L53.6283 56.4399C52.1632 55.6065 50.825 54.58 49.5072 53.5449C48.1977 52.4994 46.9098 51.4295 45.6442 50.3357" fill="#0C270D"/>
<path d="M63.3183 37.7424C61.3086 37.9835 59.2954 38.1766 57.2789 38.35C53.4387 38.6761 49.5952 38.9292 45.7459 39.1408C44.9546 39.7113 44.1598 40.2764 43.3776 40.8534C42.1004 41.7928 40.8414 42.7547 39.6014 43.7386C41.7961 45.7795 43.8812 47.8891 46.0359 49.9409C47.2323 51.0971 48.4525 52.2306 49.6956 53.3409C50.9471 54.4404 52.2135 55.5312 53.6271 56.441L52.3003 52.4803C51.6916 50.6674 53.4513 48.9777 54.1787 48.4007C57.9058 45.4184 69.2823 36.6822 69.2823 36.6822C67.3468 37.257 65.3211 37.4806 63.3183 37.7424Z" fill="#0A430D"/>
<path d="M32.5434 45.4827C32.1381 45.1206 31.7053 44.7715 31.2771 44.417C28.9625 46.3368 26.7141 48.3712 24.4098 50.3357C23.143 51.4286 21.8543 52.4981 20.5445 53.5438C19.2268 54.5789 17.8908 55.6065 16.4235 56.4388L31.9908 54.1677C32.2477 54.1459 32.8803 54.1328 33.6465 54.1252L33.8463 46.7852C33.4889 46.3543 33.0185 45.9136 32.5434 45.4827Z" fill="#005C04"/>
<path d="M59.8847 29.1872L51.59 34.9827C50.1386 36.0009 48.6911 37.024 47.2474 38.0522C50.5795 38.0097 53.9115 37.9388 57.2412 37.8046C59.26 37.7239 61.2755 37.6213 63.2897 37.4719C65.2972 37.3017 67.324 37.1676 69.2823 36.6811L66.1799 35.3732C64.9489 34.8572 64.8907 33.797 65.0174 33.0803L67.9589 23.1136C66.7565 24.2852 65.3543 25.2462 64.0046 26.2519L59.8847 29.1872Z" fill="#0F3410"/>
<path d="M24.0147 49.9398C26.1694 47.888 28.2545 45.7795 30.4515 43.7375C29.2183 42.7558 27.9519 41.7991 26.673 40.8523C25.8897 40.2753 25.0961 39.7102 24.307 39.1397C20.4586 38.9341 16.6138 38.6704 12.774 38.3489C10.7565 38.1807 8.74228 37.9782 6.73232 37.7413C4.73288 37.4806 2.7049 37.257 0.769409 36.6822C0.769409 36.6822 12.146 45.4195 15.8754 48.3996C16.6028 48.9766 18.3601 50.6663 17.7538 52.4792L16.4246 56.4399C17.8383 55.5301 19.108 54.4393 20.3584 53.3398C21.6004 52.2295 22.8194 51.096 24.0147 49.9398Z" fill="#0B320C"/>
<path d="M33.6465 54.1263L33.313 66.3466H36.7387L36.4075 54.1263C35.5431 54.1165 34.5109 54.1165 33.6465 54.1263Z" fill="#2C562E"/>
</svg>
