<svg width="42" height="36" viewBox="0 0 42 36" fill="none" xmlns="http://www.w3.org/2000/svg">
<path d="M40.9474 7.58125C40.2978 6.15957 39.3611 4.87127 38.1898 3.78844C37.0175 2.70239 35.6355 1.83932 34.1187 1.24616C32.5459 0.628657 30.859 0.312581 29.1559 0.316286C26.7665 0.316286 24.4354 0.934678 22.4095 2.10275C21.9249 2.38217 21.4645 2.68908 21.0283 3.02347C20.5921 2.68908 20.1317 2.38217 19.647 2.10275C17.6212 0.934678 15.29 0.316286 12.9007 0.316286C11.1802 0.316286 9.51298 0.627772 7.93786 1.24616C6.41606 1.84165 5.0445 2.69824 3.8668 3.78844C2.69393 4.87004 1.75701 6.15866 1.10914 7.58125C0.435472 9.06081 0.0913696 10.632 0.0913696 12.249C0.0913696 13.7743 0.420932 15.3638 1.07521 16.9808C1.62287 18.3321 2.408 19.7338 3.41123 21.1492C5.00088 23.3892 7.18665 25.7253 9.9007 28.0935C14.3983 32.0192 18.8522 34.731 19.0412 34.8409L20.1898 35.5372C20.6987 35.8441 21.353 35.8441 21.8619 35.5372L23.0105 34.8409C23.1995 34.7264 27.6486 32.0192 32.151 28.0935C34.8651 25.7253 37.0508 23.3892 38.6405 21.1492C39.6437 19.7338 40.4337 18.3321 40.9765 16.9808C41.6308 15.3638 41.9603 13.7743 41.9603 12.249C41.9652 10.632 41.6211 9.06081 40.9474 7.58125V7.58125Z" fill="#121212"/>
</svg>
