<svg width="45" height="48" viewBox="0 0 45 48" fill="none" xmlns="http://www.w3.org/2000/svg">
<path d="M22.5102 17.8142C20.9323 17.8142 19.4546 18.4152 18.3358 19.5137C17.2223 20.6121 16.6048 22.0629 16.6048 23.6121C16.6048 25.1613 17.2223 26.6121 18.3358 27.7105C19.4546 28.8037 20.9323 29.41 22.5102 29.41C24.0882 29.41 25.5659 28.8037 26.6847 27.7105C27.7982 26.6121 28.4157 25.1613 28.4157 23.6121C28.4157 22.0629 27.7982 20.6121 26.6847 19.5137C26.1382 18.973 25.4878 18.5444 24.7712 18.2526C24.0545 17.9609 23.286 17.8119 22.5102 17.8142V17.8142ZM44.269 30.0162L40.8176 27.1198C40.9812 26.1354 41.0656 25.1302 41.0656 24.1302C41.0656 23.1302 40.9812 22.1199 40.8176 21.1406L44.269 18.2442C44.5297 18.0251 44.7163 17.7332 44.804 17.4075C44.8917 17.0817 44.8762 16.7374 44.7598 16.4204L44.7123 16.2857C43.7624 13.6779 42.3392 11.2606 40.5115 9.15104L40.4165 9.04224C40.1945 8.78603 39.8987 8.60186 39.5681 8.51399C39.2374 8.42612 38.8874 8.43868 38.5641 8.55001L34.2789 10.0474C32.6956 8.77281 30.933 7.76763 29.0226 7.06816L28.194 2.66923C28.1315 2.33784 27.9678 2.03297 27.7246 1.79513C27.4814 1.55728 27.1702 1.39772 26.8324 1.33763L26.6899 1.31172C23.9457 0.824681 21.0537 0.824681 18.3094 1.31172L18.1669 1.33763C17.8292 1.39772 17.518 1.55728 17.2748 1.79513C17.0316 2.03297 16.8679 2.33784 16.8054 2.66923L15.9715 7.08888C14.0792 7.79393 12.3164 8.79667 10.7522 10.0578L6.43527 8.55001C6.11212 8.4378 5.76183 8.42478 5.43096 8.5127C5.10009 8.60063 4.8043 8.78532 4.58291 9.04224L4.48791 9.15104C2.66347 11.2629 1.24057 13.6795 0.287099 16.2857L0.239602 16.4204C0.00211929 17.0681 0.197383 17.7935 0.730401 18.2442L4.22404 21.1717C4.06044 22.1458 3.98128 23.1406 3.98128 24.125C3.98128 25.1198 4.06044 26.1146 4.22404 27.0784L0.740956 30.0058C0.480229 30.2249 0.293624 30.5168 0.205954 30.8426C0.118283 31.1684 0.133701 31.5127 0.250157 31.8296L0.297654 31.9643C1.25286 34.5705 2.66193 36.9799 4.49847 39.099L4.59346 39.2078C4.8154 39.464 5.11119 39.6482 5.44187 39.7361C5.77254 39.8239 6.12257 39.8114 6.44583 39.7L10.7627 38.1923C12.3354 39.4617 14.0875 40.4669 15.9821 41.1612L16.8159 45.5808C16.8784 45.9122 17.0422 46.2171 17.2854 46.4549C17.5286 46.6928 17.8397 46.8523 18.1775 46.9124L18.32 46.9383C21.0912 47.428 23.9293 47.428 26.7005 46.9383L26.843 46.9124C27.1808 46.8523 27.4919 46.6928 27.7351 46.4549C27.9783 46.2171 28.1421 45.9122 28.2046 45.5808L29.0331 41.1819C30.9435 40.4772 32.7062 39.4772 34.2894 38.2026L38.5747 39.7C38.8978 39.8123 39.2481 39.8253 39.579 39.7373C39.9098 39.6494 40.2056 39.4647 40.427 39.2078L40.522 39.099C42.3586 36.9695 43.7676 34.5705 44.7228 31.9643L44.7703 31.8296C44.9973 31.1871 44.802 30.4669 44.269 30.0162ZM22.5102 32.7208C17.3859 32.7208 13.2326 28.6431 13.2326 23.6121C13.2326 18.581 17.3859 14.5033 22.5102 14.5033C27.6346 14.5033 31.7879 18.581 31.7879 23.6121C31.7879 28.6431 27.6346 32.7208 22.5102 32.7208Z" fill="#121212"/>
</svg>
